<?xml version="1.0" encoding="utf-8"?>
<!-- Generator: Adobe Illustrator 27.1.1, SVG Export Plug-In . SVG Version: 6.00 Build 0)  -->
<svg version="1.1" id="Layer_1" xmlns="http://www.w3.org/2000/svg" xmlns:xlink="http://www.w3.org/1999/xlink" x="0px" y="0px"
	 viewBox="0 0 51.3 67.2" style="enable-background:new 0 0 51.3 67.2;" xml:space="preserve">
<style type="text/css">
	.st0{fill:#414042;stroke:#F1F2F2;stroke-width:2;stroke-miterlimit:10;}
	.st1{fill:#FFFFFF;stroke:#FFFFFF;stroke-miterlimit:10;}
	.st2{fill:#414042;}
	.st3{fill:none;stroke:#414042;stroke-miterlimit:10;}
</style>
<path class="st0" d="M44.8,10.8c-2.6,0.7-5.2,1.4-7.9,2.1C33,16.8,29,20.7,25.1,24.6L13.9,13.8c1.6-1.2,4.4-3,8.2-3.8
	c7.4-1.5,13.3,1.9,14.8,2.9c2.4-1.1,4.9-2.2,7.3-3.3C44,9,44,8.4,44,7.8C33.2-0.6,19.1-1.1,10.2,5.7C0.9,12.9,1,25.4,1,26.3
	c0.3,11.5,8,18.3,9.2,19.3c0,0,14,12.3,30.1,0c6.4-4.9,8.2-11.5,8.9-13.6c2.4-8.2,0.3-15.3-1.3-19.2c-1.5-0.2-2.5-1-3.2-2.1
	L44.8,10.8z"/>
<path class="st1" d="M11.7,22.3c4.7,3.6,9.4,7.2,14.1,10.7c5-3.8,10-7.6,15-11.3c-1.1,2.6-2.3,6.4-2.2,11c0.1,6.6,2.8,8.7,1.7,11.5
	c-2.8,7.1-25,7.7-28.1,0.9c-1.3-2.9,1.5-5.2,1.5-12.5C13.7,28.3,12.6,24.7,11.7,22.3z"/>
<path class="st2" d="M11.9,42.5c0,0,14.4,13.7,28.4-0.6"/>
<path class="st3" d="M9.9,43.2c0.7,0.7,9,9.4,20.1,6.8c7.3-1.6,11.4-7.1,12.6-8.8"/>
</svg>
